<?xml version="1.0" standalone="no"?>
<!DOCTYPE svg PUBLIC "-//W3C//DTD SVG 20010904//EN"
 "http://www.w3.org/TR/2001/REC-SVG-20010904/DTD/svg10.dtd">
<svg version="1.0" xmlns="http://www.w3.org/2000/svg"
 width="1084.000000pt" height="1252.000000pt" viewBox="0 0 1084.000000 1252.000000"
 preserveAspectRatio="xMidYMid meet">

<g transform="translate(0.000000,1252.000000) scale(0.100000,-0.100000)"
fill="#000000" stroke="none">
<path d="M5015 12278 c-220 -127 -744 -430 -1165 -673 -421 -243 -1095 -632
-1498 -865 -403 -232 -731 -424 -730 -425 2 -2 309 -180 683 -395 374 -216
883 -510 1130 -653 248 -143 1017 -587 1710 -987 1440 -831 2145 -1238 3320
-1917 457 -263 849 -490 873 -503 l42 -24 -2 -930 -3 -931 -804 -464 -805
-464 -45 24 c-25 14 -282 161 -571 328 -289 167 -934 540 -1435 829 -500 288
-936 540 -967 558 l-58 33 0 -2197 1 -2197 356 -204 c196 -113 364 -205 373
-205 9 -1 177 91 373 204 l357 205 2 931 3 931 795 -459 c437 -253 800 -462
806 -464 6 -3 251 134 545 304 294 169 985 569 1537 887 l1002 578 -2 1775 -3
1775 -190 109 c-275 160 -2004 1158 -2525 1458 -625 361 -2284 1318 -2982
1722 -324 187 -588 343 -588 346 0 4 40 29 88 56 48 28 241 139 430 248 188
109 347 198 353 198 10 0 416 -232 1709 -980 349 -202 887 -512 1195 -690 308
-178 787 -454 1065 -615 278 -161 714 -413 970 -560 256 -147 468 -269 473
-272 4 -2 7 375 7 839 l0 843 -333 191 c-182 106 -604 349 -937 541 -3154
1823 -4144 2393 -4150 2393 -3 0 -185 -104 -405 -232z"/>
<path d="M405 9616 c-182 -105 -347 -201 -368 -213 l-37 -22 0 -3123 0 -3123
398 -229 c2195 -1268 3406 -1966 3409 -1966 1 0 3 379 3 843 l-1 842 -797 459
c-438 253 -965 557 -1169 675 l-373 215 0 509 0 509 43 -25 c127 -73 1410
-814 1820 -1050 l477 -275 0 843 0 843 -862 498 c-475 273 -1000 577 -1168
674 l-305 176 -3 507 c-1 279 0 507 3 507 7 0 32 -14 1465 -842 586 -338 1490
-860 2010 -1160 520 -300 1363 -787 1874 -1082 510 -295 933 -536 940 -536 6
0 173 93 371 208 l360 207 3 420 2 421 -52 30 c-29 17 -667 385 -1418 819
-751 433 -1639 946 -1975 1140 -335 194 -1249 721 -2030 1172 -1324 764 -2273
1312 -2285 1318 -3 1 -154 -84 -335 -189z"/>
</g>
</svg>
