<svg width="96" height="104" fill="none" xmlns="http://www.w3.org/2000/svg">
  <g filter="url(#filter0_d)">
    <path fill-rule="evenodd" clip-rule="evenodd" d="M48 20c11.046 0 20 8.954 20 20 0 7.732-4.422 14.43-11 17.93V66a3 3 0 01-3 3H42a3 3 0 01-3-3v-8.07C32.422 54.43 28 47.732 28 40c0-11.046 8.954-20 20-20z" fill="url(#paint0_linear)"/>
    <path fill-rule="evenodd" clip-rule="evenodd" d="M38 66h20v6H38v-6zm4-4h12v-3H42v3z" fill="url(#paint1_linear)"/>
  </g>
  <path fill-rule="evenodd" clip-rule="evenodd" d="M43 69h10v7H43v-7z" fill="#FFFFFF"/>
  <defs>
    <linearGradient id="paint0_linear" x1="28" y1="40" x2="68" y2="40" gradientUnits="userSpaceOnUse">
      <stop stop-color="#7C3AED"/>
      <stop offset="1" stop-color="#9B6DFF"/>
    </linearGradient>
    <linearGradient id="paint1_linear" x1="38" y1="66" x2="58" y2="66" gradientUnits="userSpaceOnUse">
      <stop stop-color="#7C3AED"/>
      <stop offset="1" stop-color="#9B6DFF"/>
    </linearGradient>
    <filter id="filter0_d" x="0" y="0" width="96" height="104" filterUnits="userSpaceOnUse" color-interpolation-filters="sRGB">
      <feFlood flood-opacity="0" result="BackgroundImageFix"/>
      <feColorMatrix in="SourceAlpha" values="0 0 0 0 0 0 0 0 0 0 0 0 0 0 0 0 0 0 127 0"/>
      <feOffset dy="13"/>
      <feGaussianBlur stdDeviation="10.5"/>
      <feColorMatrix values="0 0 0 0 0.478431 0 0 0 0 0.235294 0 0 0 0 0.596078 0 0 0 0.3 0"/>
      <feBlend in2="BackgroundImageFix" result="effect1_dropShadow"/>
      <feBlend in="SourceGraphic" in2="effect1_dropShadow" result="shape"/>
    </filter>
  </defs>
</svg>
