<svg width="96" height="104" fill="none" xmlns="http://www.w3.org/2000/svg">
  <g filter="url(#filter0_d)">
    <circle cx="48" cy="52" r="34" stroke="url(#paint0_linear)" stroke-width="8" fill="none" />
    <path d="M69.293 38.707a1 1 0 00-1.414 0L54 48.586 45.121 39.707a1 1 0 00-1.415 1.415l9.9 9.9a1 1 0 001.415 0l12-12a1 1 0 000-1.414z" fill="#7C3AED"/>
  </g>
  <path fill-rule="evenodd" clip-rule="evenodd" d="M69.293 38.707a1 1 0 00-1.414 0L54 48.586 45.121 39.707a1 1 0 00-1.415 1.415l9.9 9.9a1 1 0 001.415 0l12-12a1 1 0 000-1.414z" fill="#9B6DFF"/>
  <defs>
    <linearGradient id="paint0_linear" x1="14" y1="52" x2="82" y2="52" gradientUnits="userSpaceOnUse">
      <stop stop-color="#7C3AED"/>
      <stop offset="1" stop-color="#9B6DFF"/>
    </linearGradient>
    <filter id="filter0_d" x="0" y="0" width="96" height="104" filterUnits="userSpaceOnUse" color-interpolation-filters="sRGB">
      <feFlood flood-opacity="0" result="BackgroundImageFix"/>
      <feColorMatrix in="SourceAlpha" values="0 0 0 0 0 0 0 0 0 0 0 0 0 0 0 0 0 0 127 0"/>
      <feOffset dy="13"/>
      <feGaussianBlur stdDeviation="10.5"/>
      <feColorMatrix values="0 0 0 0 0.478431 0 0 0 0 0.235294 0 0 0 0 0.596078 0 0 0 0.3 0"/>
      <feBlend in2="BackgroundImageFix" result="effect1_dropShadow"/>
      <feBlend in="SourceGraphic" in2="effect1_dropShadow" result="shape"/>
    </filter>
  </defs>
</svg>
