<svg width="96" height="104" fill="none" xmlns="http://www.w3.org/2000/svg">
  <g filter="url(#filter0_d)">
    <path fill-rule="evenodd" clip-rule="evenodd" d="M48 18c-13 0-24 10-24 22v16c0 9.941 8.06 18 18 18h12c9.94 0 18-8.059 18-18V40c0-12-11-22-24-22z" fill="url(#paint0_linear)"/>
  </g>
  <path fill-rule="evenodd" clip-rule="evenodd" d="M40 30l8 8 8-8 8 8-8 8-8-8-8 8-8-8 8-8z" fill="#FFFFFF"/>
  <path d="M52 30l-6 6 6 6 6-6-6-6z" fill="#7C3AED"/>
  <defs>
    <linearGradient id="paint0_linear" x1="24" y1="18" x2="72" y2="80" gradientUnits="userSpaceOnUse">
      <stop stop-color="#7C3AED"/>
      <stop offset="1" stop-color="#9B6DFF"/>
    </linearGradient>
    <filter id="filter0_d" x="0" y="0" width="96" height="104" filterUnits="userSpaceOnUse" color-interpolation-filters="sRGB">
      <feFlood flood-opacity="0" result="BackgroundImageFix"/>
      <feColorMatrix in="SourceAlpha" values="0 0 0 0 0 0 0 0 0 0 0 0 0 0 0 0 0 0 127 0"/>
      <feOffset dy="13"/>
      <feGaussianBlur stdDeviation="10.5"/>
      <feColorMatrix values="0 0 0 0 0.478431 0 0 0 0 0.235294 0 0 0 0 0.596078 0 0 0 0.3 0"/>
      <feBlend in2="BackgroundImageFix" result="effect1_dropShadow"/>
      <feBlend in="SourceGraphic" in2="effect1_dropShadow" result="shape"/>
    </filter>
  </defs>
</svg>
