<svg width="96" height="104" fill="none" xmlns="http://www.w3.org/2000/svg">
  <g filter="url(#filter0_d)">
    <rect x="20" y="22" width="56" height="60" rx="8" fill="url(#paint0_linear)" />
  </g>
  <path fill-rule="evenodd" clip-rule="evenodd" d="M48 36c-6.627 0-12 5.373-12 12s5.373 12 12 12 12-5.373 12-12-5.373-12-12-12zm0 22c-5.522 0-10-4.478-10-10s4.478-10 10-10 10 4.478 10 10-4.478 10-10 10z" fill="#FFFFFF" />
  <path d="M53 34l5 10-5-10zM43 34l-5 10 5-10zM48 32l0 4-0-4z" fill="#FFFFFF" />
  <circle cx="48" cy="48" r="6" fill="#7C3AED" />
  <defs>
    <linearGradient id="paint0_linear" x1="20" y1="22" x2="76" y2="82" gradientUnits="userSpaceOnUse">
      <stop stop-color="#7C3AED" />
      <stop offset="1" stop-color="#9B6DFF" />
    </linearGradient>
    <filter id="filter0_d" x="0" y="0" width="96" height="104" filterUnits="userSpaceOnUse" color-interpolation-filters="sRGB">
      <feFlood flood-opacity="0" result="BackgroundImageFix" />
      <feColorMatrix in="SourceAlpha" values="0 0 0 0 0 0 0 0 0 0 0 0 0 0 0 0 0 0 127 0" />
      <feOffset dy="13" />
      <feGaussianBlur stdDeviation="10.5" />
      <feColorMatrix values="0 0 0 0 0.478431 0 0 0 0 0.235294 0 0 0 0 0.596078 0 0 0 0.3 0" />
      <feBlend in2="BackgroundImageFix" result="effect1_dropShadow" />
      <feBlend in="SourceGraphic" in2="effect1_dropShadow" result="shape" />
    </filter>
  </defs>
</svg>
